<?xml version="1.0" encoding="utf-8"?>
<!-- Generator: Adobe Illustrator 25.3.1, SVG Export Plug-In . SVG Version: 6.00 Build 0)  -->
<svg version="1.1" xmlns="http://www.w3.org/2000/svg" xmlns:xlink="http://www.w3.org/1999/xlink" x="0px" y="0px"
	 viewBox="0 0 1080 1080" style="enable-background:new 0 0 1080 1080;" xml:space="preserve">
<style type="text/css">
	.st0{fill:#FFFFFF;}
	.st1{enable-background:new    ;}
	.st2{clip-path:url(#SVGID_2_);}
	.st3{fill:#EAFA37;}
	.st4{clip-path:url(#SVGID_4_);}
	.st5{fill:#DEFF2A;}
</style>
<g id="Layer_4">
	<path class="st0" d="M0,0c357.27,0,722.73,0,1080,0c0,262,0,522.88,0,784.88C984.05,880.83,877.6,984.05,781.65,1080
		c-261.33,0-519.04,0-781.65,0C0.01,722.05-0.01,357.95,0,0z"/>
</g>
<g id="Layer_2">
	<g>
		<g>
			<g class="st1">
				<defs>
					<polygon id="SVGID_1_" class="st1" points="53.81,982.63 55.21,227.41 964.84,99.57 963.43,854.79 					"/>
				</defs>
				<clipPath id="SVGID_2_">
					<use xlink:href="#SVGID_1_"  style="overflow:visible;"/>
				</clipPath>
				<g class="st2">
					<g>
						<g>
							<g>
								<path class="st3" d="M881.45,111.29c-49.74,6.99-99.48,13.98-149.23,20.97c-15.44,43.96-30.88,87.92-46.31,131.89
									c43.99-6.18,87.97-12.36,131.96-18.55c-13.55,42.79-23.27,85.04-36.82,127.83c-37.05,5.21-77.93,10.95-114.97,16.16
									c-30.83,132.15-61.67,264.28-92.5,396.42c-41.82,5.88-83.64,11.75-125.46,17.63C489.14,632.82,530.14,462,571.15,291.18
									c-38.17,5.36-76.35,10.73-114.53,16.1c-21.19,83.84-42.38,167.69-63.57,251.53c-39.59,5.56-79.17,11.13-118.75,16.69
									c19.52-83.6,39.03-167.22,58.55-250.82c-85.14,11.97-170.29,23.93-255.42,35.9c-0.07,37.26-0.14,74.53-0.21,111.78
									c31.25-4.39,62.51-8.78,93.75-13.18C131.93,632.75,92.87,806.33,53.82,979.9c42.95-6.04,85.9-12.07,128.86-18.11
									c19.51-86.33,39.02-172.66,58.53-258.99c40.43-5.68,80.86-11.36,121.28-17.04c-21.21,87.47-42.42,174.95-63.63,262.43
									c106.94-15.03,213.88-30.06,320.83-45.09c27.82-27.53,55.66-55.07,83.49-82.6c34.75-147.53,69.49-295.06,104.24-442.6
									c35.02-4.92,70.04-9.84,105.06-14.76c17.4-54.23,34.8-108.47,52.19-162.7c-43.02,6.05-86.03,12.09-129.05,18.14
									C850.88,182.81,866.17,147.05,881.45,111.29"/>
							</g>
						</g>
					</g>
				</g>
			</g>
		</g>
	</g>
</g>
<g id="Layer_3">
	<g>
		<g>
			<g class="st1">
				<defs>
					<polygon id="SVGID_3_" class="st1" points="117.13,956.27 118.54,198.16 1031.78,69.81 1030.37,827.93 					"/>
				</defs>
				<clipPath id="SVGID_4_">
					<use xlink:href="#SVGID_3_"  style="overflow:visible;"/>
				</clipPath>
				<g class="st4">
					<g>
						<g>
							<g>
								<path class="st5" d="M948.62,81.5l-152.27,21.4l-47.37,134.93l132.04-18.56c-6.53,20.76-12.25,41.7-17.8,61.97
									c-5.63,20.56-11.44,41.81-18.07,62.85l-115.06,16.17l-92.5,396.42L514.9,773.92l122.57-510.6l0.45-1.87l-117.27,16.48
									l-63.58,251.52l-116.01,16.3l58.55-250.81l-258.48,36.33l-0.21,114.66l93.39-13.12L117.14,953.54l131.6-18.5l58.53-259
									l118.5-16.65l-63.63,262.44l323.02-45.4l84.21-83.32l104.1-441.96l104.96-14.75l53.16-165.72l-128.82,18.1L948.62,81.5
									 M752.91,234.39l45.25-128.86l146.18-20.54l-45.85,107.3l129.29-18.17l-51.22,159.68L871.4,348.57L767.02,791.79
									l-82.77,81.89l-318.61,44.78l63.63-262.43L305.2,673.46l-58.54,259l-126.1,17.72l117.16-520.73l-94.13,13.23l0.2-108.9
									l252.37-35.47L337.6,549.13l121.49-17.07l63.57-251.53l111.78-15.71L511.87,775.41l-0.45,1.88l128.23-18.02l92.5-396.42
									l114.88-16.14l0.32-1c6.78-21.42,12.7-43.06,18.43-63.98c5.72-20.89,11.63-42.49,18.39-63.85l0.64-2.02L752.91,234.39"/>
							</g>
						</g>
					</g>
				</g>
			</g>
		</g>
	</g>
</g>
</svg>
