<?xml version="1.0" encoding="utf-8"?>
<!-- Generator: Adobe Illustrator 25.3.1, SVG Export Plug-In . SVG Version: 6.00 Build 0)  -->
<svg version="1.1" xmlns="http://www.w3.org/2000/svg" xmlns:xlink="http://www.w3.org/1999/xlink" x="0px" y="0px"
	 viewBox="0 0 1920 1080" enable-background="new 0 0 1920 1080" xml:space="preserve">
<g id="A">
	<path d="M1552.91,476.49c16.14-19.32,34.65-34.52,55.52-45.62c20.86-11.09,41.85-16.64,62.96-16.64c16.81,0,30.47,3.49,40.97,10.47
		c10.5,6.98,18.29,16.46,23.38,28.44c5.08,11.99,7.42,25.76,7,41.32c-0.42,15.56-3.28,31.76-8.58,48.57
		c-5.44,17.53-13.2,34.08-23.27,49.64c-10.08,15.56-21.68,29.25-34.81,41.06c-13.13,11.81-27.38,21.02-42.75,27.64
		c-15.38,6.62-31.3,9.93-47.75,9.93c-21.12,0-38-5.81-50.66-17.44c-12.67-11.62-20.66-27.19-23.98-46.69
		c-3.32-19.5-1.34-41.06,5.96-64.67C1524.76,517.81,1536.75,495.81,1552.91,476.49z M1622.38,565.31
		c0.58,7.34,3.04,13.33,7.36,17.98c4.31,4.65,10.37,7.16,18.18,7.51c6.01,0.36,12.12-0.71,18.31-3.22
		c6.19-2.5,12.14-6.08,17.85-10.73c5.7-4.65,10.8-9.93,15.31-15.83c4.5-5.9,7.9-12.08,10.18-18.52c1.85-6.08,2.85-11.89,3-17.44
		c0.14-5.54-0.8-10.55-2.82-15.03c-2.03-4.47-4.85-8.05-8.45-10.73c-3.61-2.68-8.25-4.2-13.9-4.56c-8.17-0.35-16.53,1.79-25.09,6.44
		c-8.57,4.65-16.15,10.73-22.74,18.25c-6.6,7.51-11.39,15.39-14.36,23.61C1622.73,550.55,1621.78,557.98,1622.38,565.31z
		 M1857.14,419.6l-88.72,246.87h-103.58l88.72-246.87H1857.14z"/>
</g>
<g id="R">
	<path d="M1344.45,666.47h-100.36l88.72-246.87h100.9L1344.45,666.47z M1457.64,515.13c-3.76-2.86-8.68-4.29-14.76-4.29
		c-7.81-0.35-15.82,1.79-24.02,6.44c-8.21,4.65-15.65,10.92-22.31,18.78c-6.67,7.87-11.41,16.46-14.23,25.76l1.15-46.15
		c6.44-17.17,16.24-33.63,29.39-49.37c13.15-15.74,27.62-28.53,43.43-38.37c15.8-9.84,30.68-14.76,44.63-14.76
		c9.3,0,17,2.33,23.11,6.98c6.1,4.65,10.7,10.2,13.78,16.64L1467,525.33C1464.52,521.4,1461.4,518,1457.64,515.13z"/>
</g>
<g id="J">
	<path d="M1043.06,705.38c3.44,2.68,7.66,4.03,12.66,4.03c5.37,0,10.38-1.43,15.03-4.29c4.66-2.87,8.65-6.53,11.99-11
		c3.34-4.48,5.87-9.39,7.6-14.76l93.82-259.75h98.21l-103.75,289.81c-6.58,17.89-16.26,33.72-29.04,47.5
		c-12.78,13.77-28.02,24.42-45.71,31.93c-17.69,7.51-37.45,11.27-59.27,11.27c-18.6,0-33.27-3.31-44.02-9.93
		c-10.74-6.62-19.7-13.69-26.88-21.2l60.92-72.99C1036.82,699.56,1039.63,702.7,1043.06,705.38z M1230.43,294.56
		c13.08-9.66,27.68-14.49,43.77-14.49c16.1,0,28.88,4.83,38.34,14.49c9.46,9.66,12.71,22.36,9.76,38.1
		c-2.95,15.75-10.97,28.44-24.06,38.1c-13.08,9.66-27.68,14.49-43.78,14.49c-16.1,0-28.88-4.83-38.34-14.49
		c-9.46-9.66-12.71-22.36-9.76-38.1C1209.33,316.92,1217.35,304.22,1230.43,294.56z"/>
</g>
<g id="E_1_">
	<path d="M856.57,658.16c-18.68-9.12-32.08-22.09-40.2-38.91c-8.12-16.81-9.99-36.85-5.63-60.11c3.96-21.11,11.54-40.52,22.73-58.23
		c11.19-17.71,25.33-33.01,42.42-45.89c17.08-12.88,36.5-22.89,58.23-30.05c21.74-7.15,45.12-10.73,70.17-10.73
		c27.55,0,49.68,4.56,66.39,13.69c16.71,9.12,28.09,21.92,34.12,38.37c6.03,16.46,6.94,35.96,2.71,58.5
		c-1.14,6.09-2.9,12.61-5.29,19.59c-2.38,6.98-5.08,13.68-8.07,20.12H859.66l9.47-50.45h148.12l-25.03,24.69
		c2.75-3.22,5.18-6.62,7.28-10.2c2.1-3.57,3.39-6.62,3.86-9.12c1.61-8.59,2-15.92,1.18-22c-0.83-6.08-3.08-10.73-6.77-13.95
		c-3.69-3.22-9.11-4.83-16.27-4.83c-7.16,0-13.65,1.26-19.49,3.76c-5.84,2.51-11.21,6.36-16.12,11.54
		c-4.92,5.19-9.55,11.81-13.92,19.86c-4.38,8.05-9.07,17.8-14.08,29.25c-5.08,11.81-7.38,22.19-6.91,31.13
		c0.47,8.95,3.38,15.83,8.73,20.66c5.35,4.83,12.86,7.25,22.52,7.25c11.45,0,21.49-2.05,30.14-6.17
		c8.64-4.11,16.56-10.1,23.77-17.98l89.49,15.03c-18.21,26.48-40.7,46.25-67.48,59.3c-26.79,13.06-57.34,19.59-91.69,19.59
		C898.55,671.84,875.26,667.28,856.57,658.16z"/>
</g>
<g id="E">
	<path d="M539.4,658.16c-18.68-9.12-32.08-22.09-40.2-38.91c-8.12-16.81-9.99-36.85-5.63-60.11c3.96-21.11,11.54-40.52,22.73-58.23
		c11.19-17.71,25.33-33.01,42.42-45.89c17.08-12.88,36.5-22.89,58.23-30.05c21.74-7.15,45.12-10.73,70.17-10.73
		c27.55,0,49.68,4.56,66.39,13.69c16.71,9.12,28.09,21.92,34.12,38.37c6.03,16.46,6.94,35.96,2.71,58.5
		c-1.14,6.09-2.9,12.61-5.29,19.59c-2.38,6.98-5.08,13.68-8.07,20.12H542.49l9.47-50.45h148.12l-25.03,24.69
		c2.75-3.22,5.17-6.62,7.28-10.2c2.1-3.57,3.39-6.62,3.86-9.12c1.61-8.59,2-15.92,1.18-22c-0.83-6.08-3.08-10.73-6.77-13.95
		s-9.11-4.83-16.27-4.83c-7.16,0-13.65,1.26-19.49,3.76c-5.84,2.51-11.21,6.36-16.12,11.54c-4.92,5.19-9.55,11.81-13.92,19.86
		c-4.38,8.05-9.07,17.8-14.08,29.25c-5.08,11.81-7.38,22.19-6.91,31.13c0.47,8.95,3.38,15.83,8.73,20.66
		c5.35,4.83,12.86,7.25,22.52,7.25c11.45,0,21.49-2.05,30.14-6.17c8.64-4.11,16.56-10.1,23.77-17.98l89.49,15.03
		c-18.21,26.48-40.7,46.25-67.48,59.3c-26.79,13.06-57.34,19.59-91.69,19.59C581.38,671.84,558.09,667.28,539.4,658.16z"/>
</g>
<g id="H">
	<g id="Layer_5">
		<polygon points="290.63,290.8 155.73,666.47 39.27,666.47 174.17,290.8 		"/>
	</g>
	<g id="Layer_4">
		<polygon points="152.68,419.6 446.24,419.6 408.36,524.25 114.8,524.25 		"/>
	</g>
	<g id="Layer_3">
		<polygon points="535.35,290.8 400.46,666.47 284,666.47 418.89,290.8 		"/>
	</g>
	<g>
	</g>
	<g>
	</g>
	<g>
	</g>
	<g>
	</g>
	<g>
	</g>
</g>
</svg>
